<svg xmlns="http://www.w3.org/2000/svg" viewBox="0 0 151.83 151.84"><defs><style>.cls-1{fill:#f90e13;}.cls-2{fill:#fff;}</style></defs><g id="Layer_2" data-name="Layer 2"><g id="Layer_1-2" data-name="Layer 1"><path class="cls-1" d="M135,0H16.87A16.87,16.87,0,0,0,0,16.87V135a16.87,16.87,0,0,0,16.87,16.87H135A16.87,16.87,0,0,0,151.83,135V16.87A16.87,16.87,0,0,0,135,0ZM30.88,59.46c-.19-2-.33-4.06-.39-6.19a94.44,94.44,0,0,1,1.47-20l.55-3h86.81l.55,3c.2,1.12.37,2.25.52,3.34l.14,1H38.63a87.34,87.34,0,0,0-.89,15.07h51.5l-.1.7c-.3,2.21-.64,4.22-1,6.19l-.1.49H30.94Zm90.49-6.19c-.07,2.14-.2,4.22-.4,6.19-.27,2.7-.63,5.32-1.09,7.79a83.59,83.59,0,0,1-14.34,35.1,81.87,81.87,0,0,1-28.12,24.38l-1.71.9L74,126.72a82.16,82.16,0,0,1-27.73-24.39A84,84,0,0,1,32,67.24c-.06-.35-.12-.69-.17-1l-.09-.6-.12-.71H39l.09.51v.5a77.28,77.28,0,0,0,13,32.18,74.92,74.92,0,0,0,23.56,21.26A74.68,74.68,0,0,0,99.52,98.11a76.72,76.72,0,0,0,13.13-32.17c.35-1.87.64-3.86.87-5.9H100.31c-.56,2.9-1.12,5.3-1.75,7.55A75.25,75.25,0,0,1,88.05,91.52a68.09,68.09,0,0,1-9.9,11.4l-2.45,2.25-2.47-2.25a65.1,65.1,0,0,1-9.92-11.43A62.85,62.85,0,0,1,53.25,67.18c-.06-.35-.11-.7-.15-1a1.36,1.36,0,0,0-.07-.52L52.94,65h7.34l.07.52v.56a55.88,55.88,0,0,0,8.9,21.39c.82,1.2,1.76,2.45,2.85,3.78V71h7.28V90.83c1-1.21,1.82-2.33,2.59-3.45a67.83,67.83,0,0,0,9.5-21.77,93.6,93.6,0,0,0,3.38-22V43l7.27.24v.62c-.09,2.7-.33,5.58-.72,8.79h19.91Z"/><path class="cls-2" d="M102.2,43.86v-.62L94.93,43v.61a93.6,93.6,0,0,1-3.38,22,67.83,67.83,0,0,1-9.5,21.77c-.77,1.12-1.62,2.24-2.59,3.45V71H72.18V91.16c-1.09-1.33-2-2.58-2.85-3.78A55.88,55.88,0,0,1,60.43,66v-.56l-.07-.52H52.94l.09.69a4.34,4.34,0,0,0,.07.52,5.35,5.35,0,0,0,.15,1A62.85,62.85,0,0,0,63.31,91.43a65.1,65.1,0,0,0,9.92,11.43l2.47,2.25,2.45-2.25a68.09,68.09,0,0,0,9.9-11.4A75.32,75.32,0,0,0,98.54,67.57c.63-2.25,1.19-4.65,1.75-7.55h13.28c-.23,2-.52,4-.87,5.9A76.72,76.72,0,0,1,99.57,98.09a74.68,74.68,0,0,1-23.88,21.27A74.92,74.92,0,0,1,52.13,98.1a77.28,77.28,0,0,1-13-32.18v-.5L39,64.91H31.59l.12.71.09.6a5.81,5.81,0,0,0,.17,1,84,84,0,0,0,14.26,35.09A82.2,82.2,0,0,0,74,126.68l1.71.91,1.71-.9a81.79,81.79,0,0,0,28.16-24.34,83.55,83.55,0,0,0,14.38-35.1c.46-2.47.82-5.09,1.09-7.79.2-2,.33-4,.4-6.19v-.63H101.48C101.87,49.44,102.11,46.56,102.2,43.86Z"/><path class="cls-2" d="M88.1,59.53c.4-2,.74-4,1-6.19l.1-.7H37.74a87.8,87.8,0,0,1,.89-15.11h81.91l-.14-1c-.15-1.09-.32-2.22-.52-3.34l-.55-3H32.54l-.55,3a94.44,94.44,0,0,0-1.47,20c.06,2.13.2,4.22.39,6.19l.06.56H88Z"/></g></g></svg>